<svg id="codeer" xmlns="http://www.w3.org/2000/svg" width="94.382" height="94.048" viewBox="0 0 94.382 94.048">
  <g id="Group_33" data-name="Group 33">
    <path id="Path_61" data-name="Path 61" d="M48.618,50.237A10.618,10.618,0,1,0,38,39.618,10.63,10.63,0,0,0,48.618,50.237Zm0-18.2a7.585,7.585,0,1,1-7.585,7.585A7.593,7.593,0,0,1,48.618,32.034Z" transform="translate(18.126 13.473)" fill="#2593d8"/>
    <path id="Path_62" data-name="Path 62" d="M46.551,42.1A4.551,4.551,0,1,0,42,37.551,4.556,4.556,0,0,0,46.551,42.1Zm0-6.068a1.517,1.517,0,1,1-1.517,1.517A1.519,1.519,0,0,1,46.551,36.034Z" transform="translate(20.193 15.541)" fill="#2593d8"/>
    <path id="Path_63" data-name="Path 63" d="M77.023,78.514l1.042-1.669H95.382L93.4,66.922l-9.141-7.616c.1-1.132.174-2.266.174-3.408,0-.1-.009-.191-.011-.288h.011V5.551A4.556,4.556,0,0,0,79.879,1H5.551A4.556,4.556,0,0,0,1,5.551v63.71a4.556,4.556,0,0,0,4.551,4.551H40.713l-.607,3.034H57.423l1.042,1.669-.589,1.473a9.113,9.113,0,0,0,2.988,10.661L63.736,92.8l2.9-5.808a9.4,9.4,0,0,1,2.62,6.538v1.517h3.762l2.524-3.155a12.527,12.527,0,0,0,1.846-12.455ZM61,76.845l-1.664-2.662a34.392,34.392,0,0,1-1.849-3.405H78a34.562,34.562,0,0,1-1.849,3.405l-1.663,2.662ZM57.769,40.44h19.95a34.4,34.4,0,0,1,1.579,27.3H56.19a34.4,34.4,0,0,1,1.579-27.3Zm1.719-3.034c.137-.214.258-.437.4-.649l4.4-6.6a4.153,4.153,0,0,1,6.91,0l4.4,6.6c.141.212.262.434.4.649H59.487Zm31.145,31.16,1.048,5.245H79.867a37.47,37.47,0,0,0,3.9-10.97ZM5.551,4.034H79.879A1.519,1.519,0,0,1,81.4,5.551V19.2H4.034V5.551A1.519,1.519,0,0,1,5.551,4.034ZM41.319,70.778H5.551a1.519,1.519,0,0,1-1.517-1.517V22.237H81.4V41.166a37.621,37.621,0,0,0-3.27-6.093l-4.4-6.6a7.187,7.187,0,0,0-11.958,0l-4.4,6.6A37.41,37.41,0,0,0,51.058,55.9c0,1.142.071,2.277.174,3.407L42.092,66.92Zm3.536-2.212,6.87-5.725a37.469,37.469,0,0,0,3.9,10.97H43.807ZM73.179,90l-1.074,1.341a12.409,12.409,0,0,0-3.472-6.65l-2.82-2.82-3.161,6.324a6.078,6.078,0,0,1-1.957-7.081l.491-1.233H74.3l.275.687A9.489,9.489,0,0,1,73.179,90Z" transform="translate(-1 -1)" fill="#2593d8"/>
    <path id="Path_64" data-name="Path 64" d="M14.1,5H5v9.1h9.1Zm-3.034,6.068H8.034V8.034h3.034Z" transform="translate(1.068 1.068)" fill="#2593d8"/>
    <path id="Path_65" data-name="Path 65" d="M22.1,5H13v9.1h9.1Zm-3.034,6.068H16.034V8.034h3.034Z" transform="translate(5.203 1.068)" fill="#2593d8"/>
    <path id="Path_66" data-name="Path 66" d="M30.1,5H21v9.1h9.1Zm-3.034,6.068H24.034V8.034h3.034Z" transform="translate(9.338 1.068)" fill="#2593d8"/>
    <path id="Path_67" data-name="Path 67" d="M41.406,17H32.3V47.338H29.271v-18.2h-9.1v18.2H17.135V35.2h-9.1V47.338H5v3.034H44.44V47.338H41.406Zm-6.068,3.034h3.034v27.3H35.338ZM23.2,32.169h3.034V47.338H23.2ZM11.068,38.237H14.1v9.1H11.068Z" transform="translate(1.068 7.271)" fill="#2593d8"/>
    <rect id="Rectangle_17" data-name="Rectangle 17" width="3.103" height="3.103" transform="translate(5.738 24.53)" fill="#2593d8"/>
    <rect id="Rectangle_18" data-name="Rectangle 18" width="15.514" height="3.103" transform="translate(11.944 24.53)" fill="#2593d8"/>
    <rect id="Rectangle_19" data-name="Rectangle 19" width="3.103" height="3.103" transform="translate(5.738 30.735)" fill="#2593d8"/>
    <rect id="Rectangle_20" data-name="Rectangle 20" width="15.514" height="3.103" transform="translate(11.944 30.735)" fill="#2593d8"/>
  </g>
</svg>
