<svg id="leer" xmlns="http://www.w3.org/2000/svg" width="94" height="94" viewBox="0 0 94 94">
  <g id="Group_32" data-name="Group 32">
    <path id="Path_56" data-name="Path 56" d="M48.34,20.363a3.233,3.233,0,0,0,6.416,0L56.062,9.915A4.365,4.365,0,0,0,51.726,5h-.355A4.375,4.375,0,0,0,47,9.371a4.571,4.571,0,0,0,.033.541ZM51.371,8.032h.355a1.34,1.34,0,0,1,1.339,1.339,1.225,1.225,0,0,1-.011.165L51.749,19.984a.208.208,0,0,1-.4,0L50.043,9.535a1.187,1.187,0,0,1-.011-.164A1.34,1.34,0,0,1,51.371,8.032Z" transform="translate(22.742 1.065)" fill="#2593d8"/>
    <path id="Path_57" data-name="Path 57" d="M51.548,28.1A4.548,4.548,0,1,0,47,23.548,4.554,4.554,0,0,0,51.548,28.1Zm0-6.065a1.516,1.516,0,1,1-1.516,1.516A1.518,1.518,0,0,1,51.548,22.032Z" transform="translate(22.742 8.29)" fill="#2593d8"/>
    <path id="Path_58" data-name="Path 58" d="M49.072,58.524l.444-.444v-10.3l3.282-1.64-.3-1.18a59.368,59.368,0,0,0-5.238-12.429c-.029-.053-.074-.091-.1-.143A9.108,9.108,0,0,0,43.37,15H32.839A22.768,22.768,0,0,0,10.1,37.742V54.988a8.176,8.176,0,0,1-.995,3.9L2.365,71.241a11.181,11.181,0,0,0,9.817,16.533H52.549V84.051A20.312,20.312,0,0,0,40.42,65.528v-3.7C46.363,61.153,48.949,58.647,49.072,58.524ZM12.182,84.742a8.149,8.149,0,0,1-7.155-12.05L11.765,60.34a11.212,11.212,0,0,0,1.365-5.352V37.742a19.733,19.733,0,0,1,19.71-19.71h10.53a6.089,6.089,0,0,1,6.065,6.146,5.988,5.988,0,0,1-5.981,5.983,3.032,3.032,0,1,1,0-6.065h3.032V21.065H43.452a6.071,6.071,0,0,0-6.065,6.065,6,6,0,0,0,.843,3.032H30.2a6.461,6.461,0,0,0-6.454,6.454v4.159H22.616A6.454,6.454,0,0,0,19.036,52.6l4.7,3.132a3.416,3.416,0,0,1,1.522,2.847v6.607a7.594,7.594,0,0,0-6.065,7.428V84.742Zm19.141,0h-9.1V72.613a4.548,4.548,0,1,1,9.1,0Zm18.194-.691v.691H34.355V72.613a7.586,7.586,0,0,0-.176-1.6,7.5,7.5,0,0,0,4.541-2.141l.535-.535A17.254,17.254,0,0,1,49.516,84.051ZM37.387,65.921l-.811.811a4.521,4.521,0,0,1-3.217,1.333h-.52c-.014,0-.027,0-.041,0a7.566,7.566,0,0,0-4.507-2.876V58.578a6.436,6.436,0,0,0-2.875-5.37l-4.7-3.132a3.423,3.423,0,0,1,1.9-6.269h4.159V36.616A3.426,3.426,0,0,1,30.2,33.194H43.274a1.5,1.5,0,0,1,1.325.781A61.162,61.162,0,0,1,49.24,44.524L46.484,45.9v5.485h-.261A8.9,8.9,0,0,1,39.975,48.8l-2.144,2.144a11.952,11.952,0,0,0,8.392,3.477h.261v2.3c-1.036.71-3.881,2.25-9.1,2.25H34.355V62h3.032Z" transform="translate(-1 6.226)" fill="#2593d8"/>
    <path id="Path_59" data-name="Path 59" d="M27.6,35.548A4.554,4.554,0,0,0,32.152,31H29.12a1.516,1.516,0,1,1-3.032,0H23.055A4.553,4.553,0,0,0,27.6,35.548Z" transform="translate(10.383 14.484)" fill="#2593d8"/>
    <path id="Path_60" data-name="Path 60" d="M71.871,61.645H59.742a1.517,1.517,0,0,1-1.516-1.516V58.613h1.516a7.589,7.589,0,0,0,7.581-7.581v-1.8a4.524,4.524,0,0,0,.085-8.512,9.375,9.375,0,0,1,2.687-5.482l.552-.552a19.711,19.711,0,1,0-27.873,0l.552.552a9.392,9.392,0,0,1,2.687,5.482,4.525,4.525,0,0,0,.085,8.513v1.8a7.589,7.589,0,0,0,7.581,7.581h1.516v1.516a4.554,4.554,0,0,0,4.548,4.548H71.871a1.516,1.516,0,1,1,0,3.032H50.645a4.548,4.548,0,0,0,0,9.1H68.839a1.517,1.517,0,0,1,1.516,1.516v6.065A1.517,1.517,0,0,1,68.839,85.9H61.105a7.594,7.594,0,0,0-7.428-6.065H43.065v3.032H37V85.9h6.065v3.032H37v3.032h6.065V95H53.677a7.6,7.6,0,0,0,7.428-6.065h7.734a4.554,4.554,0,0,0,4.548-4.548V78.323a4.554,4.554,0,0,0-4.548-4.548H50.645a1.516,1.516,0,1,1,0-3.032H71.871a4.548,4.548,0,0,0,0-9.1ZM65.807,46.484H47.613a1.516,1.516,0,0,1,0-3.032H65.807a1.516,1.516,0,0,1,0,3.032ZM44.917,32.548a16.678,16.678,0,1,1,23.585,0l-.552.552a12.388,12.388,0,0,0-3.558,7.32H49.028a12.388,12.388,0,0,0-3.558-7.32Zm4.212,18.485V49.516H64.29v1.516a4.554,4.554,0,0,1-4.548,4.548H53.677A4.554,4.554,0,0,1,49.129,51.032Zm4.548,40.936H46.1v-9.1h7.581a4.548,4.548,0,1,1,0,9.1Z" transform="translate(17.581 -1)" fill="#2593d8"/>
  </g>
</svg>
