<svg id="speel" xmlns="http://www.w3.org/2000/svg" width="94.048" height="95" viewBox="0 0 94.048 95">
  <g id="Group_31" data-name="Group 31" transform="translate(0)">
    <path id="Path_48" data-name="Path 48" d="M39.135,49h-9.1A3.037,3.037,0,0,0,27,52.034v3.034A3.037,3.037,0,0,0,30.034,58.1h9.1a3.037,3.037,0,0,0,3.034-3.034V52.034A3.037,3.037,0,0,0,39.135,49Zm-9.1,6.068V52.034h9.1l0,3.034Z" transform="translate(12.439 23.812)" fill="#2593d8"/>
    <path id="Path_49" data-name="Path 49" d="M23.068,49H20.034A3.037,3.037,0,0,0,17,52.034v3.034A3.037,3.037,0,0,0,20.034,58.1h3.034A3.037,3.037,0,0,0,26.1,55.068V52.034A3.037,3.037,0,0,0,23.068,49Zm-3.034,6.068V52.034h3.034l0,3.034Z" transform="translate(7.27 23.812)" fill="#2593d8"/>
    <path id="Path_50" data-name="Path 50" d="M47.068,49H44.034A3.037,3.037,0,0,0,41,52.034v3.034A3.037,3.037,0,0,0,44.034,58.1h3.034A3.037,3.037,0,0,0,50.1,55.068V52.034A3.037,3.037,0,0,0,47.068,49Zm-3.034,6.068V52.034h3.034l0,3.034Z" transform="translate(19.676 23.812)" fill="#2593d8"/>
    <ellipse id="Ellipse_4" data-name="Ellipse 4" cx="1" cy="1.5" rx="1" ry="1.5" transform="translate(46 6)" fill="#2593d8"/>
    <path id="Path_51" data-name="Path 51" d="M90.5,22.237H76.845V8.585A7.593,7.593,0,0,0,69.261,1H26.787A7.593,7.593,0,0,0,19.2,8.585v5.355A13.607,13.607,0,0,0,1.343,23.69,15.2,15.2,0,0,0,5.1,37.136a7.328,7.328,0,0,1,1.963,5.036V80.126l4.149,12.448a3.622,3.622,0,0,0,6.872,0l2.35-7.052a7.575,7.575,0,0,0,6.35,3.46H69.261A7.593,7.593,0,0,0,76.845,81.4V55.609H90.5a4.556,4.556,0,0,0,4.551-4.551V26.787A4.556,4.556,0,0,0,90.5,22.237ZM73.811,8.585V22.237H70.778V16.169a3.037,3.037,0,0,0-3.034-3.034H54.052a7.506,7.506,0,0,0,1.556-4.551V4.034H69.261A4.556,4.556,0,0,1,73.811,8.585ZM60.159,55.609h7.585V67.744H28.3V16.169h39.44v6.068H60.159a4.556,4.556,0,0,0-4.551,4.551V51.058A4.556,4.556,0,0,0,60.159,55.609ZM43.473,8.585V4.034h9.1V8.585a4.551,4.551,0,1,1-9.1,0Zm-21.237,0a4.556,4.556,0,0,1,4.551-4.551H40.439V8.585A7.506,7.506,0,0,0,42,13.135H28.3a3.037,3.037,0,0,0-3.034,3.034v2.069a13.6,13.6,0,0,0-1.511-1.62,13.5,13.5,0,0,0-1.523-1.16ZM4.3,24.348a10.635,10.635,0,0,1,9.138-8.112,10.515,10.515,0,0,1,8.293,2.641,10.637,10.637,0,0,1,3.536,7.911,12.4,12.4,0,0,1-3.2,8.109,11.157,11.157,0,0,0-2.717,5.543H16.169V31.059a4.551,4.551,0,1,0-3.034,0V40.44H9.953a10.286,10.286,0,0,0-2.632-5.377A12.119,12.119,0,0,1,4.3,24.348Zm5.8,19.125h9.1v3.034H10.1Zm3.034-16.686A1.517,1.517,0,1,1,14.652,28.3,1.518,1.518,0,0,1,13.135,26.787ZM10.1,49.541h3.034V78.362H10.1Zm6.068,0H19.2V78.362H16.169ZM15.21,91.612a.612.612,0,0,1-1.115,0L10.688,81.4h7.926ZM73.811,81.4a4.556,4.556,0,0,1-4.551,4.551H26.787A4.556,4.556,0,0,1,22.237,81.4V42.113a7.871,7.871,0,0,1,2.1-5.2c.332-.372.642-.76.936-1.159V67.744A3.037,3.037,0,0,0,28.3,70.778h39.44a3.037,3.037,0,0,0,3.034-3.034V55.609h3.034Zm18.2-30.338A1.518,1.518,0,0,1,90.5,52.575H60.159a1.518,1.518,0,0,1-1.517-1.517V26.787a1.518,1.518,0,0,1,1.517-1.517H90.5a1.518,1.518,0,0,1,1.517,1.517Z" transform="translate(-1 -1)" fill="#2593d8"/>
    <path id="Path_52" data-name="Path 52" d="M52.068,19A6.074,6.074,0,0,0,46,25.068h3.034a3.034,3.034,0,1,1,6.068,0v.6a3.028,3.028,0,0,1-1.352,2.524l-3.2,2.133v3.845h3.034V31.947l1.849-1.233a6.055,6.055,0,0,0,2.7-5.047v-.6A6.074,6.074,0,0,0,52.068,19Z" transform="translate(22.26 8.304)" fill="#2593d8"/>
    <ellipse id="Ellipse_5" data-name="Ellipse 5" cx="1.5" cy="1" rx="1.5" ry="1" transform="translate(73 46)" fill="#2593d8"/>
    <path id="Path_53" data-name="Path 53" d="M39.008,36.549l-10.26-5.13A3.972,3.972,0,0,0,23,34.971v10.26a3.972,3.972,0,0,0,5.748,3.553l10.26-5.13a3.972,3.972,0,0,0,0-7.105ZM37.65,40.94,27.39,46.07a.964.964,0,0,1-1.356-.839V34.971a.938.938,0,0,1,1.356-.839l10.259,5.13a.937.937,0,0,1,0,1.678Z" transform="translate(10.371 14.507)" fill="#2593d8"/>
    <path id="Path_54" data-name="Path 54" d="M24.034,34.237h3.034V31.2H30.1V28.169H27.068V13H24.034V28.169H21V31.2h3.034Z" transform="translate(9.338 5.203)" fill="#2593d8"/>
    <path id="Path_55" data-name="Path 55" d="M35.068,13H32.034v9.1H29v3.034h3.034v9.1h3.034v-9.1H38.1V22.1H35.068Z" transform="translate(13.473 5.203)" fill="#2593d8"/>
  </g>
</svg>
